<?xml version="1.0" encoding="utf-8"?>
<!-- Generator: Adobe Illustrator 23.0.4, SVG Export Plug-In . SVG Version: 6.00 Build 0)  -->
<svg version="1.1" id="Layer_1" xmlns="http://www.w3.org/2000/svg" xmlns:xlink="http://www.w3.org/1999/xlink" x="0px" y="0px"
	 viewBox="0 0 30 16.12" style="enable-background:new 0 0 30 16.12;" xml:space="preserve">
<style type="text/css">
	.st0{fill:#333333;}
	.st1{fill:#FFFFFF;}
</style>
<path class="st0" d="M27,16.12H3c-1.66,0-3-1.34-3-3V3c0-1.66,1.34-3,3-3h24c1.66,0,3,1.34,3,3v10.12C30,14.78,28.66,16.12,27,16.12
	z"/>
<g>
	<path class="st1" d="M1.99,13.15L1.06,12.8L5.32,2.54l0.92,0.35L1.99,13.15z"/>
	<path class="st1" d="M6.24,13.15L5.31,12.8L9.57,2.54l0.92,0.35L6.24,13.15z"/>
	<path class="st1" d="M18.48,5.17c-0.53-0.69-1.41-1.08-2.28-1.08c-2.12,0-3.52,1.69-3.52,3.84c0,1.99,1.32,3.68,3.52,3.68
		c1.08,0,1.91-0.48,2.47-1.27l1.08,0.81c-0.28,0.39-1.41,1.65-3.57,1.65c-3,0-4.85-2.5-4.85-4.88c0-2.93,2.01-5.04,4.92-5.04
		c1.24,0,2.55,0.47,3.3,1.47L18.48,5.17z"/>
	<path class="st1" d="M21.29,3.13h1.28V7.2h0.11l4.17-4.08h1.79l-4.56,4.36l4.86,5.08h-1.86l-4.4-4.72h-0.11v4.72h-1.28V3.13z"/>
</g>
</svg>
